<svg xmlns="http://www.w3.org/2000/svg" width="512" height="512" viewBox="0 0 485.158 485.157"><path d="M374.07 326.221c-60.435-21.791-79.744-40.18-79.744-79.543 0-4.342.625-7.617 1.691-10.352 4.743-12.161 18.245-13.512 24.857-48.836 3.365-17.954 19.663-.292 22.779-41.27 0-16.328-8.897-20.392-8.897-20.392s4.52-24.173 6.292-42.771C343.246 59.881 327.517 0 243.638 0c-.362 0-.704.02-1.058.025-.357-.006-.698-.025-1.064-.025-83.878 0-99.604 59.881-97.409 83.057 1.771 18.598 6.294 42.771 6.294 42.771s-8.897 4.063-8.897 20.392c3.12 40.978 19.417 23.315 22.779 41.27 6.613 35.324 20.119 36.675 24.86 48.836 1.064 2.734 1.689 6.01 1.689 10.352 0 39.363-19.313 57.752-79.747 79.543-60.62 21.859-87.884 44.15-87.884 59.354v99.583h438.756v-99.583c0-15.204-27.26-37.495-87.887-59.354z" data-original="#000000" class="active-path" data-old_color="#000000" fill="#1A9E8A"/></svg>