<?xml version="1.0"?>
<!--Icons from directory ""-->
<svg xmlns="http://www.w3.org/2000/svg" width="300" height="1200" viewBox="0 0 300 1200"><svg width="300" height="300" viewBox="0 0 482 482" id="female" y="0"><path d="M372.816 322.828c-60.436-21.786-79.748-10.809-79.748-50.174 0-1.879.119-5.41.34-9.022h2.957c41.301 3.012 81.092 5.89 89.947-.301 14.143-9.88-34.811-25.105-34.811-152.92 0-64.582-42.562-110.41-107.145-110.41-.549 0-1.088.033-1.629.043-.152-.004-.307-.006-.455-.014V.018c-.242 0-.484-.018-.727-.018-.076 0-.15.004-.227.004-.073 0-.146-.004-.223-.004-.071 0-.142.004-.213.006-.07-.002-.141-.006-.212-.006-.076 0-.149.004-.223.004-.076 0-.15-.004-.227-.004-.242 0-.484.018-.727.018V.03c-.149.008-.303.01-.455.014-.542-.01-1.081-.043-1.629-.043-64.581 0-107.145 45.828-107.145 110.41 0 127.814-48.951 143.041-34.811 152.92 8.856 6.188 48.647 3.312 89.948.301h2.958c.22 3.612.338 7.146.338 9.022 0 39.365-19.313 28.388-79.747 50.174-60.62 21.863-78.095 44.152-78.095 59.355v99.58h420.053v-99.58c.002-15.201-17.472-37.49-78.092-59.355z"/></svg><svg width="300" height="300" viewBox="0 0 481.764 481.764" id="female_active" y="300"><path d="M372.816 322.828c-60.436-21.786-79.748-10.809-79.748-50.174 0-1.879.119-5.41.34-9.022h2.957c41.301 3.012 81.092 5.89 89.947-.301 14.143-9.88-34.811-25.105-34.811-152.92 0-64.582-42.562-110.41-107.145-110.41-.549 0-1.088.033-1.629.043-.152-.004-.307-.006-.455-.014V.018c-.242 0-.484-.018-.727-.018-.076 0-.15.004-.227.004-.073 0-.146-.004-.223-.004-.071 0-.142.004-.213.006-.07-.002-.141-.006-.212-.006-.076 0-.149.004-.223.004-.076 0-.15-.004-.227-.004-.242 0-.484.018-.727.018V.03c-.149.008-.303.01-.455.014-.542-.01-1.081-.043-1.629-.043-64.581 0-107.145 45.828-107.145 110.41 0 127.814-48.951 143.041-34.811 152.92 8.856 6.188 48.647 3.312 89.948.301h2.958c.22 3.612.338 7.146.338 9.022 0 39.365-19.313 28.388-79.747 50.174-60.62 21.863-78.095 44.152-78.095 59.355v99.58h420.053v-99.58c.002-15.201-17.472-37.49-78.092-59.355z" data-original="#000000" class="active-path" data-old_color="#000000" fill="#1A9E8A"/></svg><svg width="300" height="300" viewBox="0 0 485 485" id="male" y="600"><path d="M374.07 326.221c-60.435-21.791-79.744-40.18-79.744-79.543 0-4.342.625-7.617 1.691-10.352 4.743-12.161 18.245-13.512 24.857-48.836 3.365-17.954 19.663-.292 22.779-41.27 0-16.328-8.897-20.392-8.897-20.392s4.52-24.173 6.292-42.771C343.246 59.881 327.517 0 243.638 0c-.362 0-.704.02-1.058.025-.357-.006-.698-.025-1.064-.025-83.878 0-99.604 59.881-97.409 83.057 1.771 18.598 6.294 42.771 6.294 42.771s-8.897 4.063-8.897 20.392c3.12 40.978 19.417 23.315 22.779 41.27 6.613 35.324 20.119 36.675 24.86 48.836 1.064 2.734 1.689 6.01 1.689 10.352 0 39.363-19.313 57.752-79.747 79.543-60.62 21.859-87.884 44.15-87.884 59.354v99.583h438.756v-99.583c0-15.204-27.26-37.495-87.887-59.354z"/></svg><svg width="300" height="300" viewBox="0 0 485.158 485.157" id="male_active" y="900"><path d="M374.07 326.221c-60.435-21.791-79.744-40.18-79.744-79.543 0-4.342.625-7.617 1.691-10.352 4.743-12.161 18.245-13.512 24.857-48.836 3.365-17.954 19.663-.292 22.779-41.27 0-16.328-8.897-20.392-8.897-20.392s4.52-24.173 6.292-42.771C343.246 59.881 327.517 0 243.638 0c-.362 0-.704.02-1.058.025-.357-.006-.698-.025-1.064-.025-83.878 0-99.604 59.881-97.409 83.057 1.771 18.598 6.294 42.771 6.294 42.771s-8.897 4.063-8.897 20.392c3.12 40.978 19.417 23.315 22.779 41.27 6.613 35.324 20.119 36.675 24.86 48.836 1.064 2.734 1.689 6.01 1.689 10.352 0 39.363-19.313 57.752-79.747 79.543-60.62 21.859-87.884 44.15-87.884 59.354v99.583h438.756v-99.583c0-15.204-27.26-37.495-87.887-59.354z" data-original="#000000" class="active-path" data-old_color="#000000" fill="#1A9E8A"/></svg></svg>
